HIERARCHY
ROOT hip
{
	OFFSET 0.000000 0.000000 0.000000 
	CHANNELS 6 Xposition Yposition Zposition Xrotation Zrotation Yrotation
	JOINT abdomen
	{
		OFFSET 0.000000 3.402643 0.000000 
		CHANNELS 3 Xrotation Zrotation Yrotation
		JOINT chest
		{
			OFFSET 0.000000 8.438565 -0.680529 
			CHANNELS 3 Xrotation Zrotation Yrotation
			JOINT neck
			{
				OFFSET 0.000000 10.207942 -0.272212 
				CHANNELS 3 Xrotation Zrotation Yrotation
				JOINT head
				{
					OFFSET 0.000000 3.130431 0.000000 
					CHANNELS 3 Xrotation Zrotation Yrotation
					End Site
					{
						OFFSET 0.000000 3.130435 0.000000 
					}
				}
			}
			JOINT lCollar
			{
				OFFSET 3.470700 6.669187 -0.816635 
				CHANNELS 3 Yrotation Zrotation Xrotation
				JOINT lShldr
				{
					OFFSET 3.198488 0.000000 0.000000 
					CHANNELS 3 Zrotation Yrotation Xrotation
					JOINT lForeArm
					{
						OFFSET 10.139888 0.000000 0.000000 
						CHANNELS 3 Yrotation Zrotation Xrotation
						JOINT lHand
						{
							OFFSET 8.370511 0.000000 0.000000 
							CHANNELS 3 Zrotation Yrotation Xrotation
							End Site
							{
								OFFSET 4.083176 0.000000 0.000000 
							}
						}
					}
				}
			}
			JOINT rCollar
			{
				OFFSET -3.470700 6.669187 -0.816635 
				CHANNELS 3 Yrotation Zrotation Xrotation
				JOINT rShldr
				{
					OFFSET -3.198488 0.000000 0.000000 
					CHANNELS 3 Zrotation Yrotation Xrotation
					JOINT rForeArm
					{
						OFFSET -10.139888 0.000000 0.000000 
						CHANNELS 3 Yrotation Zrotation Xrotation
						JOINT rHand
						{
							OFFSET -8.370511 0.000000 0.000000 
							CHANNELS 3 Zrotation Yrotation Xrotation
							End Site
							{
								OFFSET -4.083176 0.000000 0.000000 
							}
						}
					}
				}
			}
		}
	}
	JOINT lThigh
	{
		OFFSET 5.308129 -1.633274 1.361059 
		CHANNELS 3 Xrotation Zrotation Yrotation
		JOINT lShin
		{
			OFFSET -2.041588 -20.007561 0.000000 
			CHANNELS 3 Xrotation Zrotation Yrotation
			JOINT lFoot
			{
				OFFSET 0.000000 -19.190928 -1.224953 
				CHANNELS 3 Xrotation Yrotation Zrotation
				End Site
				{
					OFFSET 0.000000 -2.449906 4.627600 
				}
			}
		}
	}
	JOINT rThigh
	{
		OFFSET -5.308129 -1.633274 1.361059 
		CHANNELS 3 Xrotation Zrotation Yrotation
		JOINT rShin
		{
			OFFSET 2.041588 -20.007561 0.000000 
			CHANNELS 3 Xrotation Zrotation Yrotation
			JOINT rFoot
			{
				OFFSET 0.000000 -19.190928 -1.224953 
				CHANNELS 3 Xrotation Yrotation Zrotation
				End Site
				{
					OFFSET 0.000000 -2.449906 4.627600 
				}
			}
		}
	}
}
MOTION
Frames: 18
Frame Time: 0.016667
0.195736 47.872471 0.060546 16.235855 0.041992 30.683607 8.246711 -1.825652 -1.368049 -0.369922 0.161634 -13.193388 21.091599 -16.580814 8.336660 -2.601439 -17.380396 23.515223 -23.412132 -10.471973 -2.477652 -41.042366 -24.243031 -56.874939 -96.615395 5.712222 12.199279 46.238499 -12.665791 -47.558002 -2.836435 8.592140 -2.406788 51.013153 -9.873957 -22.990339 46.945507 -11.257211 11.434660 -68.604485 3.271611 -73.312538 0.798831 3.731142 -0.702911 16.846788 -0.722669 -0.777115 -3.719696 -3.351808 -1.735579 -32.029831 -8.154282 16.861429 43.304153 -1.002778 1.673111 -22.174854 -1.033638 8.291706 
0.128220 48.220699 0.438307 15.385615 -1.423069 28.622799 8.246711 -1.825652 -1.368049 -0.195880 0.864552 -13.380450 20.777401 -16.157858 9.203382 -2.989036 -17.226217 24.165478 -23.346609 -10.065619 -2.071703 -43.173141 -20.661570 -52.733707 -92.556572 6.108995 12.034931 47.054134 -11.399034 -51.159672 -2.855070 9.109751 -2.212550 50.047649 -9.264660 -25.778843 47.487583 -11.233623 11.481892 -71.336082 4.111047 -72.113724 0.459013 5.263466 -1.473152 18.420332 -0.703385 -0.835695 -2.364142 -0.505263 -1.856327 -30.526663 -6.923725 13.296941 39.768745 -0.904594 1.949071 -20.201923 2.914638 6.946766 
0.072267 48.519863 0.839002 14.450204 -2.609035 26.699659 8.246711 -1.825652 -1.368049 0.162972 1.027621 -13.009888 21.032539 -15.445624 10.033207 -2.835108 -16.690813 24.605732 -23.079977 -9.882975 -1.616857 -44.897694 -17.312384 -47.884827 -88.017838 6.678103 11.799187 46.534180 -10.486392 -52.956306 -2.744543 9.457499 -1.848792 49.346420 -9.031169 -29.096518 49.437424 -11.049034 11.737710 -71.659920 4.766046 -70.770660 0.322414 6.506944 -1.536632 20.304684 -0.713258 -0.922482 -0.232570 1.728895 -1.776016 -28.535025 -5.312483 9.858504 36.412895 -1.227242 1.718591 -18.264057 6.243561 6.358913 
0.019363 48.789646 1.270418 13.239989 -3.487196 24.716656 8.246711 -1.825652 -1.368049 0.525269 1.201434 -12.473446 21.297855 -14.816393 11.136252 -2.504967 -15.993366 24.993093 -22.486698 -10.013009 -1.292986 -46.299862 -13.904060 -43.197159 -83.634796 7.006999 11.545877 45.235672 -9.988240 -53.670933 -2.262449 9.437210 -1.514272 48.654675 -8.811099 -32.592030 52.093464 -10.758480 11.914315 -70.925186 4.961692 -69.283936 0.166559 7.743874 -1.435848 22.779228 -0.704681 -0.926573 1.728557 3.911191 -2.146546 -26.198908 -3.905812 7.061401 33.086452 -1.215843 1.798141 -16.412281 9.827383 5.616248 
-0.031201 49.012558 1.716895 11.992803 -4.219668 22.632427 8.246711 -1.825652 -1.368049 0.862505 1.204647 -11.760310 21.690069 -14.204744 12.424505 -2.006956 -15.102831 25.377272 -21.726105 -10.119910 -0.967469 -46.634102 -10.776458 -38.107536 -79.258591 7.402764 11.267653 43.660702 -9.740128 -52.470730 -1.618751 9.438155 -1.149006 47.647701 -8.594507 -35.724701 55.290913 -10.436770 12.110568 -69.623932 5.319848 -68.392555 -0.009095 8.821025 -1.377867 25.932224 -0.733456 -1.067770 3.858693 5.998880 -2.253885 -23.495075 -2.695159 4.586851 29.905502 -0.932421 1.950488 -14.448039 13.047707 5.391483 
-0.077523 49.179951 2.168101 10.689338 -4.797891 20.396564 8.246711 -1.825652 -1.368049 1.397435 1.044700 -11.056388 22.490870 -13.673317 13.432282 -1.508650 -14.200375 25.600445 -20.932325 -10.474745 -0.556085 -46.641827 -7.384632 -33.163319 -75.220917 7.712958 10.801079 41.650681 -9.853035 -50.268608 -0.982280 9.249551 -0.634040 46.593731 -8.158183 -38.476967 58.483112 -10.142868 12.459810 -67.950279 5.642199 -67.860313 -0.204570 9.687988 -1.158384 29.274075 -0.567762 -1.183981 5.801098 7.394014 -2.247908 -21.090408 -0.927414 1.674119 27.219797 -1.703124 2.560819 -12.522604 16.026072 4.116417 
-0.118663 49.276974 2.609793 9.563577 -5.313562 18.018906 8.246711 -1.825652 -1.368049 1.930375 0.682825 -10.000678 22.891468 -13.336842 14.669718 -1.015128 -13.491527 25.798847 -19.786659 -10.780663 -0.111983 -45.891418 -4.416383 -28.399946 -71.979645 7.937296 10.567704 39.462978 -9.855126 -46.482895 0.000829 9.111348 -0.129991 44.821674 -7.578163 -40.658470 61.333454 -9.788307 12.777073 -66.920708 5.870318 -67.964920 -0.546731 10.398360 -1.101747 32.981506 -0.743713 -0.839143 7.180908 7.903125 -2.156697 -18.684738 0.156459 -0.365916 25.079538 -1.663559 3.043315 -11.156967 19.438185 3.441974 
-0.152117 49.304604 3.039062 8.380545 -5.642935 15.672794 8.246711 -1.825652 -1.368049 2.460100 0.501636 -8.945651 23.371540 -13.307932 15.764259 -0.696895 -12.616783 25.913719 -18.657827 -11.243070 0.274553 -44.960609 -1.591621 -23.673901 -69.479004 8.139298 10.381476 37.366581 -9.541253 -42.440731 0.974678 8.805678 0.394931 42.489010 -6.847298 -42.399654 64.148705 -9.489327 12.908709 -66.103523 6.454613 -68.094467 -1.063875 10.895338 -1.450295 36.650215 -0.753890 -1.049302 7.936204 8.256559 -2.319074 -16.539244 1.522921 -2.338837 23.599955 -1.924180 4.292798 -10.157969 22.493307 2.603789 
-0.174707 49.255314 3.446585 7.133352 -5.835158 13.351161 8.246711 -1.825652 -1.368049 2.975172 0.164432 -7.919945 23.890017 -13.283984 16.849001 -0.385873 -11.912897 26.029810 -17.515045 -11.692949 0.704276 -43.864231 1.430537 -19.075235 -68.052917 8.250056 10.267682 35.073620 -9.327241 -38.938995 1.963920 8.518528 0.916425 39.415424 -5.960502 -43.733406 66.835487 -9.232074 13.328464 -64.935036 6.885085 -67.891571 -1.757152 11.022154 -1.647772 40.344540 -0.588388 -1.359653 7.970103 8.504476 -2.430281 -14.557034 2.547859 -3.819251 22.664993 -2.227142 4.637129 -9.891291 25.875662 1.977174 
-0.186829 49.140083 3.837047 5.891206 -6.004581 10.860332 8.246711 -1.825652 -1.368049 3.498271 -0.184273 -6.718809 24.068958 -13.571930 18.069296 -0.411139 -11.395059 25.978546 -16.207531 -12.102726 1.102974 -42.593044 4.297561 -14.341866 -67.153961 8.303441 10.168643 32.726067 -9.078069 -35.941502 3.097722 8.266021 1.486492 35.642391 -5.252847 -44.372169 69.105240 -8.888721 13.205517 -63.294815 7.591069 -67.405807 -2.468306 11.301029 -2.324919 43.883652 -0.569317 -1.360870 7.500654 7.677068 -2.460233 -12.903276 3.250343 -5.458974 22.754190 -2.819183 5.885117 -10.324671 28.716461 1.902305 
-0.186249 48.961040 4.209063 4.871804 -6.288013 8.508460 8.246711 -1.825652 -1.368049 4.036866 -0.544350 -5.508120 24.438086 -13.598991 19.169554 -0.417264 -11.060184 26.054943 -14.872310 -12.342457 1.632146 -42.055103 7.421733 -9.688535 -66.800865 8.283424 10.150308 30.419102 -9.103813 -33.521530 4.255718 8.210188 2.016041 30.986414 -4.406753 -44.733009 71.225807 -8.648938 13.384806 -60.865517 8.729465 -66.504097 -3.356755 11.496724 -3.101560 47.202454 -0.589236 -1.505940 6.473654 6.671995 -2.349695 -11.325175 4.120250 -6.539283 22.871218 -2.959666 6.708421 -11.195780 31.229456 1.337106 
-0.177653 48.737373 4.571626 3.973061 -6.367536 6.328089 8.246711 -1.825652 -1.368049 4.568077 -0.720455 -4.473039 24.392004 -14.097302 19.981045 -0.444604 -10.715379 25.953087 -13.759199 -12.698277 1.904373 -41.324917 10.412934 -5.071399 -67.153961 8.303441 10.168643 28.271465 -9.066970 -31.409472 5.235777 7.951689 2.422892 25.812883 -3.352630 -44.649765 72.819298 -8.466638 13.496762 -58.113430 9.960108 -65.270958 -4.215659 11.292598 -3.810587 50.390419 -0.609168 -1.494514 5.114085 5.817017 -2.399739 -10.268609 4.460878 -6.943004 23.848011 -3.414663 7.334084 -12.350849 32.833282 1.182324 
-0.162880 48.481945 4.930292 2.897803 -6.475641 4.343884 8.246711 -1.825652 -1.368049 4.904082 -0.887232 -3.262234 24.634916 -14.309948 21.012442 -0.469544 -10.377989 25.863552 -12.432734 -12.902278 2.450763 -41.470005 13.175943 -1.118904 -67.696342 8.221300 10.251376 25.872311 -8.798136 -28.561586 6.386068 7.937142 2.966586 20.134647 -2.242645 -44.429325 73.542236 -8.332137 13.567884 -54.881401 11.247360 -63.946533 -5.404746 11.446331 -4.686842 53.045731 -0.240367 -1.478583 2.981400 4.440954 -2.035871 -9.263505 4.998363 -7.378408 25.001852 -3.826620 7.814502 -14.019830 34.583866 1.046509 
-0.148286 48.216335 5.293947 2.059094 -6.711445 2.684255 8.246711 -1.825652 -1.368049 5.267050 -1.239135 -2.412812 24.755564 -14.614505 21.864967 -0.463313 -10.204259 25.718176 -11.309755 -13.056619 2.776074 -41.425465 15.819521 2.805946 -68.569016 8.168878 10.141556 23.453615 -8.569458 -25.337357 7.385942 7.893533 3.339428 14.475163 -0.891158 -44.367809 73.896072 -8.311462 13.584373 -51.646843 12.550115 -62.556732 -6.697912 11.355731 -6.178367 55.660995 -0.424291 -1.160046 0.836592 3.132995 -2.233721 -8.459790 5.386686 -7.477053 26.854918 -4.419982 8.344546 -16.519136 35.426155 1.814531 
-0.139477 47.961426 5.671837 1.322621 -6.746117 1.376075 8.246711 -1.825652 -1.368049 5.444911 -1.425358 -1.397024 24.772070 -14.830745 22.354216 -0.288089 -10.028572 25.374599 -10.397027 -13.180269 2.944755 -42.079418 18.072840 6.191300 -69.297112 8.115913 10.374711 21.089508 -7.736583 -21.145771 8.232658 7.829681 3.555277 9.211209 0.572206 -44.326618 73.542236 -8.332137 13.567884 -48.734360 13.805036 -61.528023 -8.042232 11.274502 -7.649123 57.768757 -0.453915 -1.278129 -0.834093 2.266265 -2.169640 -7.570689 5.533017 -7.219700 27.790489 -4.306878 7.920321 -18.269541 36.679199 2.021798 
-0.140317 47.732586 6.068888 0.462291 -6.972022 0.776448 8.246711 -1.825652 -1.368049 5.624736 -1.591680 -0.693634 24.996510 -14.788797 22.674627 -0.305257 -9.513473 25.144295 -9.667102 -13.327283 3.161007 -42.681522 20.021761 9.249696 -70.020744 8.069097 10.434906 18.661135 -6.744571 -16.925634 8.887656 7.756636 3.752312 4.360555 2.268050 -44.552814 72.829010 -8.464496 13.682763 -46.514519 15.008098 -60.414688 -9.622607 11.147217 -9.257785 59.700436 -0.299414 -1.317919 -2.775665 1.902863 -2.134693 -6.406452 5.634289 -7.084331 28.787130 -4.766691 8.132187 -20.081367 36.891346 2.715930 
-0.156648 47.551201 6.493209 -0.428517 -7.030718 0.707400 8.246711 -1.825652 -1.368049 5.782154 -1.767578 -0.029584 25.194534 -14.771312 23.018745 0.026555 -8.976475 24.696877 -8.757348 -13.604168 3.311421 -43.493740 21.735403 12.519176 -70.377808 8.048609 10.451861 16.865044 -5.731492 -12.147622 9.723620 7.534787 4.003290 0.219559 4.231744 -44.884201 71.599525 -8.608350 13.588138 -44.995106 16.159472 -59.261063 -10.845263 10.954124 -10.880147 61.142330 -0.132230 -1.619626 -4.076494 1.833221 -2.130260 -5.336226 5.786341 -6.956176 29.478983 -4.697330 8.203464 -21.467836 36.614063 2.641032 
-0.188033 47.419994 6.944665 -1.155923 -7.059161 1.141026 8.246711 -1.825652 -1.368049 5.786698 -2.119006 0.644813 25.497408 -14.451002 22.861649 0.346261 -8.284337 24.094463 -8.229677 -13.740782 3.318171 -44.127731 23.157564 15.839776 -70.722099 8.021912 10.483415 15.215087 -4.676389 -7.384828 10.238361 7.401555 4.033843 -3.042891 6.252009 -45.209785 70.357056 -8.759920 13.482777 -43.937672 16.921467 -58.211235 -12.439109 10.633582 -13.194360 62.373875 -0.464499 -1.026175 -5.870418 2.021958 -2.403782 -4.010383 5.845459 -6.944142 29.808592 -4.891909 8.085846 -22.504011 36.351707 2.505843 
